<svg xmlns="http://www.w3.org/2000/svg" viewBox="0 0 512 512" role="img" aria-labelledby="title desc">
  <title id="title">Giotto, spazio abitato</title>
  <desc id="desc">Un arco blu contiene due profili color terra che si incontrano sopra una linea dorata.</desc>
  <rect width="512" height="512" rx="92" fill="#102b46"/>
  <path d="M92 403V225C92 116 166 60 256 60s164 56 164 165v178h-62V229c0-70-42-111-102-111s-102 41-102 111v174z" fill="#2874a7"/>
  <path d="M139 356c36-11 64-36 86-76 21-39 37-64 60-71 24-8 48 4 74 35-24 1-42 9-53 24-16 21-16 50-42 70-30 24-70 30-125 18z" fill="#c98476"/>
  <path d="M373 356c-35-11-63-36-85-76-22-39-38-64-61-71-24-8-48 4-74 35 24 1 42 9 54 24 15 21 15 50 41 70 30 24 70 30 125 18z" fill="#9d463d" opacity=".92"/>
  <path d="M83 408h346" stroke="#cfaa58" stroke-width="18" stroke-linecap="round"/>
  <circle cx="256" cy="235" r="18" fill="#f8f2e7"/>
</svg>
